inDegrees=no
num_controls=7
num_derivatives=13
num_iterations=69
num_multipliers=7
num_parameters=0
num_slacks=7
num_states=26
objective=0.425083
objective_accelerations=0.061518
objective_balance=0.001339
objective_effort=0.015515
objective_height=0.340784
objective_ligament=0.005927
solver_duration=1012.239072
status=Solve_Succeeded
success=true
DataType=double
version=3
OpenSimVersion=4.5
endheader
time	/jointset/ground_pelvis/pelvis_tilt/value	/jointset/ground_pelvis/pelvis_tx/value	/jointset/ground_pelvis/pelvis_ty/value	/jointset/hip_l/hip_flexion_l/value	/jointset/hip_l/hip_adduction_l/value	/jointset/hip_l/hip_rotation_l/value	/jointset/back/lumbar_extension/value	/jointset/patellofemoral_l/patellar_flexion_l/value	/jointset/knee_l/knee_flexion_l/value	/jointset/knee_l/knee_adduction_l/value	/jointset/knee_l/knee_rotation_l/value	/jointset/ankle_l/ankle_angle_l/value	/jointset/subtalar_l/subtalar_angle_l/value	/jointset/ground_pelvis/pelvis_tilt/speed	/jointset/ground_pelvis/pelvis_tx/speed	/jointset/ground_pelvis/pelvis_ty/speed	/jointset/hip_l/hip_flexion_l/speed	/jointset/hip_l/hip_adduction_l/speed	/jointset/hip_l/hip_rotation_l/speed	/jointset/back/lumbar_extension/speed	/jointset/patellofemoral_l/patellar_flexion_l/speed	/jointset/knee_l/knee_flexion_l/speed	/jointset/knee_l/knee_adduction_l/speed	/jointset/knee_l/knee_rotation_l/speed	/jointset/ankle_l/ankle_angle_l/speed	/jointset/subtalar_l/subtalar_angle_l/speed	/forceset/tau_hip_flexion_l	/forceset/tau_hip_adduction_l	/forceset/tau_hip_rotation_l	/forceset/tau_knee_flexion_l	/forceset/tau_ankle_angle_l	/forceset/tau_subtalar_angle_l	/forceset/tau_lumbar_extension	lambda_cid13_p0	lambda_cid13_p1	lambda_cid13_p2	lambda_cid13_p3	lambda_cid13_p4	lambda_cid13_p5	lambda_cid14_p0	/jointset/ground_pelvis/pelvis_tilt/accel	/jointset/ground_pelvis/pelvis_tx/accel	/jointset/ground_pelvis/pelvis_ty/accel	/jointset/hip_l/hip_flexion_l/accel	/jointset/hip_l/hip_adduction_l/accel	/jointset/hip_l/hip_rotation_l/accel	/jointset/back/lumbar_extension/accel	/jointset/patellofemoral_l/patellar_flexion_l/accel	/jointset/knee_l/knee_flexion_l/accel	/jointset/knee_l/knee_adduction_l/accel	/jointset/knee_l/knee_rotation_l/accel	/jointset/ankle_l/ankle_angle_l/accel	/jointset/subtalar_l/subtalar_angle_l/accel	gamma_cid13_p0	gamma_cid13_p1	gamma_cid13_p2	gamma_cid13_p3	gamma_cid13_p4	gamma_cid13_p5	gamma_cid14_p0
1.5	-0.3537780823708052	0.04350461819200364	0.7827618106691137	1.051584743780239	-0.3530393656757067	-0.04912090796655386	-0.3319003309860201	0.8515478196980882	0.8515478196980519	-0.01658494936462069	-0.1713574622270712	0.2763346469520169	0.1622591268155601	0.5161246151304834	0.2760958515954404	0.5373685584579635	-2.428040798101104	-0.002083498144072336	-0.5869230207970478	0.613367047171562	-2.29205494753595	-2.292054947536418	-0.3377684618668539	0.04373749408346351	-0.5572243002103389	-0.2273527273689672	-0.1315124520430201	0.06254837126041038	-0.00379544698703973	-0.1419416411098499	-0.01132966854821886	-0.004070179315283638	0.1257073521285415	-28.26108516903602	7.696941296250432	-2.628595360811678	-6.696708120595367	-427.3661085028805	-35.97069852832166	-8.729546232310954	0.587405591569254	0.6921321322016548	-0.8138940121976852	-1.350643277061869	0.3043853249837066	-0.5451192413665863	1.628309765826793	-1.231011043568496	-1.231011043568485	-0.08381025228139466	0.3458424588359624	-0.5296161144732954	0.4329582437332332	7.170832850571995e-07	-8.276895386513858e-07	-8.8501320709298e-06	-5.419166989399604e-07	1.668100131097321e-06	1.475946612404364e-06	9.578807921890226e-07
1.51	-0.3485875807342608	0.0462998733694788	0.7880937309179626	1.027238365833526	-0.353047853202884	-0.05500840861832624	-0.3256871765509702	0.8285678785425167	0.8285678785424886	-0.01997804140417866	-0.1709005733407029	0.2707357827358157	0.1600031740455559	0.5218742170079208	0.2829156161269377	0.5288942491572266	-2.44089573882254	0.0003799578238642166	-0.5904976443722411	0.6291669957911711	-2.303615132865957	-2.303615132866152	-0.3408461912927727	0.04767646044585561	-0.5624492057374724	-0.2238127474110899	-0.1266892655434584	0.06121972619582301	-0.00298880547218502	-0.1389463296600807	-0.01083913365700354	-0.004978005527491313	0.1217249008552046	-27.95189026807974	7.823692615441033	-2.405074723751571	-6.587450436830982	-423.8306525143605	-35.82873321515996	-9.685224254259106	0.553571776215216	0.6708586763367809	-0.8820461836826544	-1.201966171332759	0.2177998728514019	-0.2507329674192385	1.541310802957004	-1.07097967612508	-1.070979676084235	-0.4195684116936654	0.4217471947199771	-0.5040403633652628	0.3194310001369476	7.056930840718066e-07	-8.426995678447692e-07	-8.652958392438211e-06	-5.299972676788103e-07	1.687598184446033e-06	1.67100515626065e-06	9.196964484395073e-07
1.52	-0.3433426162208664	0.04916211820481147	0.7933373387148701	1.002773629139266	-0.3530316113423518	-0.06092907531621716	-0.3193189279511386	0.8054818440539724	0.8054818440539372	-0.02340187356279629	-0.1704035300967485	0.2650876469460369	0.1577836037007949	0.5270171905007301	0.2894937831669447	0.5197060680696246	-2.451712547609908	0.002862379397914349	-0.5935562300203753	0.6443858801279438	-2.313273614132297	-2.31327361413222	-0.3439164856765546	0.05176836559941385	-0.5670786149258811	-0.2200762423203348	-0.1218660790439052	0.05989108113122213	-0.002182163957433333	-0.1359510182103195	-0.01034859876579262	-0.005885831739716728	0.1177424495818637	-27.63748559939862	7.948818573996089	-2.180474733123947	-6.5375959236706	-420.2113728851388	-35.80846974972913	-10.63902821473034	0.4660799146436216	0.6438126339035671	-0.9566683695706858	-0.9430168902482337	0.3081784462064265	-0.4419116559547994	1.512096909259506	-0.8506702308352173	-0.8506702308352043	-0.08232324385399656	0.3764302170691907	-0.4105168467283112	0.4722632703087826	6.925054268763473e-07	-7.052020674217429e-07	-8.435535622267747e-06	-4.967081984450973e-07	1.717017462081075e-06	1.930620741769791e-06	8.921153237581183e-07
1.53	-0.3380491253712531	0.05208874345366347	0.7984855881325992	0.9782109512383528	-0.3529902665495881	-0.06687928537348159	-0.3128015542487498	0.7823087457327997	0.7823087457327627	-0.02685474375741267	-0.1698653075685588	0.2593961274700975	0.1556026449349486	0.5315866034817985	0.2957714209664482	0.5098306219529458	-2.460456918106553	0.005422646930657965	-0.5964606547293764	0.6589811705203369	-2.321002028157888	-2.321002028157973	-0.3465669184678651	0.05588784428828618	-0.5711244732213899	-0.2160641503066471	-0.1174994873716598	0.05864538771241312	-0.001236248549002067	-0.1323988060687685	-0.01110300367669549	-0.006986545220715392	0.1140254385955477	-27.76770595377127	8.212264152402788	-1.95131551855013	-6.005936798194322	-416.903582444788	-35.55855489576043	-11.5886640774942	0.4382715643463226	0.6106803600123161	-1.019606086995231	-0.7851368738396478	0.2336279196814605	-0.2099616302613798	1.41709162981653	-0.6824971099630769	-0.6824971099873252	-0.3431378470175804	0.4299736831229019	-0.3864955179169195	0.3743845802935927	6.774079724576925e-07	-4.05665316781283e-07	-8.196598192188472e-06	-4.407138888655364e-07	1.756978040520342e-06	2.258828184035089e-06	8.758001193366133e-07
1.54	-0.3327127604769287	0.05507633328191814	0.8035317584183059	0.953571831683579	-0.3529225836789236	-0.07285759042821159	-0.3061414583373195	0.7590686492470661	0.7590686492470173	-0.0303314651900114	-0.1692858368558073	0.2536671743718117	0.153463547571918	0.535591999443183	0.3016866990474791	0.4992902416650969	-2.467000878381883	0.008129994978324931	-0.5991752295139203	0.6729303219362252	-2.326673247045162	-2.326673247045408	-0.3486867332690956	0.06001800251022536	-0.574565339395088	-0.2117039617571667	-0.1131328956994106	0.05739969429361278	-0.0002903331406537272	-0.1288465939272167	-0.01185740858759537	-0.008087258701700463	0.1103084276092352	-27.89137813661977	8.474121598392706	-1.721393786424999	-5.540300121547756	-413.5012740629091	-35.42614018059355	-12.53275433099926	0.353276510706831	0.5713406902090686	-1.089655203804669	-0.5029348459852478	0.3375945491910997	-0.4039416710633901	1.38286911395852	-0.4392312031717991	-0.4392312031717814	0.02380035416203709	0.3785661236825623	-0.2895184223661518	0.5418825774673007	6.512635758893214e-07	2.440493163275887e-07	-7.85462668895394e-06	-3.334742009270578e-07	1.761536906230879e-06	2.661410668985476e-06	8.842898499369485e-07
